<?xml version="1.0" encoding="UTF-8" standalone="no"?>
<svg width="24px" height="24px" viewBox="0 0 24 24" version="1.1" xmlns="http://www.w3.org/2000/svg" xmlns:xlink="http://www.w3.org/1999/xlink" xmlns:sketch="http://www.bohemiancoding.com/sketch/ns">
    <!-- Generator: sketchtool 3.4.4 (395) - http://www.bohemiancoding.com/sketch -->
    <title>ic_count_default</title>
    <desc>Created with sketchtool.</desc>
    <defs></defs>
    <g id="QR-Code" stroke="none" stroke-width="1" fill="none" fill-rule="evenodd" sketch:type="MSPage">
        <g id="Scanner-Tab-Bar" sketch:type="MSArtboardGroup" transform="translate(-168.000000, -12.000000)">
            <g id="Count" sketch:type="MSLayerGroup" transform="translate(120.000000, 0.000000)">
                <rect id="Rectangle-54" sketch:type="MSShapeGroup" x="0" y="0" width="120" height="48"></rect>
                <g id="numerical_sorting_12" transform="translate(51.000000, 14.000000)" sketch:type="MSShapeGroup">
                    <path d="M15,0 L15,16" id="Stroke-1" stroke="#FFFFFF" stroke-width="2"></path>
                    <path d="M15,20 L11,15 L19,15 L15,20 Z" id="Fill-3" fill="#FFFFFF"></path>
                    <path d="M4,8 L2.398,8 L2.398,1.898 L0.5,2.5 L0.5,1.199 L3.801,0 L4,0 L4,8 Z" id="Fill-4" fill="#FFFFFF"></path>
                    <path d="M5.801,20 L0.398,20 L0.398,18.898 L3,16.199 C3.199,16 3.398,15.801 3.5,15.602 C3.602,15.398 3.699,15.301 3.801,15.102 C3.898,15 3.898,14.801 4,14.699 C4,14.602 4.102,14.5 4.102,14.301 C4.102,13.898 4,13.699 3.801,13.5 C3.602,13.301 3.398,13.199 3,13.199 C2.801,13.199 2.699,13.199 2.5,13.301 C2.398,13.398 2.199,13.5 2.102,13.602 C2,13.699 1.898,13.898 1.898,14 C1.801,14.199 1.801,14.301 1.801,14.5 L0.199,14.5 C0.199,14.102 0.301,13.801 0.398,13.5 C0.5,13.301 0.699,13 1,12.801 C1.301,12.602 1.5,12.398 1.898,12.199 C2.199,12.102 2.5,12 3,12 C3.398,12 3.801,12.102 4.102,12.199 C4.398,12.301 4.699,12.5 4.898,12.602 C5.102,12.801 5.301,13 5.398,13.301 C5.5,13.602 5.602,13.898 5.602,14.199 C5.602,14.5 5.602,14.699 5.5,15 C5.398,15.199 5.301,15.5 5.102,15.699 C4.898,15.898 4.801,16.199 4.5,16.398 C4.301,16.699 4,17 3.801,17.301 L2.398,18.801 L5.801,18.801 L5.801,20 Z" id="Fill-6" fill="#FFFFFF"></path>
                </g>
            </g>
        </g>
    </g>
</svg>